<?xml version="1.0" encoding="UTF-8" standalone="no"?>
<!-- Created with Inkscape (http://www.inkscape.org/) -->

<svg
   xmlns:dc="http://purl.org/dc/elements/1.1/"
   xmlns:cc="http://creativecommons.org/ns#"
   xmlns:rdf="http://www.w3.org/1999/02/22-rdf-syntax-ns#"
   xmlns:svg="http://www.w3.org/2000/svg"
   xmlns="http://www.w3.org/2000/svg"
   xmlns:sodipodi="http://sodipodi.sourceforge.net/DTD/sodipodi-0.dtd"
   xmlns:inkscape="http://www.inkscape.org/namespaces/inkscape"
   width="52.916668mm"
   height="46.062717mm"
   viewBox="0 0 52.916668 46.062717"
   version="1.1"
   id="svg8"
   sodipodi:docname="jf.svg"
   inkscape:version="0.92.3 (2405546, 2018-03-11)">
  <defs
     id="defs2">
    <rect
       height="80"
       width="80"
       id="a"
       x="0"
       y="0" />
  </defs>
  <sodipodi:namedview
     id="base"
     pagecolor="#ffffff"
     bordercolor="#666666"
     borderopacity="1.0"
     inkscape:pageopacity="0.0"
     inkscape:pageshadow="2"
     inkscape:zoom="1.4"
     inkscape:cx="16.522061"
     inkscape:cy="109.989"
     inkscape:document-units="mm"
     inkscape:current-layer="layer1"
     showgrid="false"
     inkscape:window-width="1920"
     inkscape:window-height="1055"
     inkscape:window-x="1920"
     inkscape:window-y="0"
     inkscape:window-maximized="1"
     inkscape:pagecheckerboard="true" />
  <metadata
     id="metadata5">
    <rdf:RDF>
      <cc:Work
         rdf:about="">
        <dc:format>image/svg+xml</dc:format>
        <dc:type
           rdf:resource="http://purl.org/dc/dcmitype/StillImage" />
        <dc:title></dc:title>
      </cc:Work>
    </rdf:RDF>
  </metadata>
  <g
     inkscape:label="Layer 1"
     inkscape:groupmode="layer"
     id="layer1"
     transform="translate(-81.114675,-81.281699)">
    <g
       id="g946"
       transform="matrix(0.26458333,0,0,0.26458333,46.718842,81.281699)">
      <g
         transform="matrix(6.0069509,0,0,6.0069509,123.87267,-66.184646)"
         featurekey="nameFeature-0"
         id="SvgjsG1205"
         style="fill:#111111">
        <path
           id="path922"
           d="m 6.6256,39.75238 c -0.24359,0.14078 -0.47236,0.21039 -0.70156,0.21039 -0.2292,0 -0.45844,-0.07039 -0.70204,-0.21117 L 1.546,37.6268 C 1.23241,37.45282 1.02004,37.1184 1.02004,36.7344 c 0,-0.5632 0.4568,-1.02 1.02,-1.02 0.19199,0 0.3716,0.0532 0.5252,0.14559 l 3.3588,1.9416 6.7476,-3.9004 v -19.616 c 0,-0.5632 0.4568,-1.02 1.02,-1.02 0.5632,0 1.02,0.4568 1.02,1.02 v 19.984 c 0,0.5624 -0.21442,0.934 -0.7016,1.2156 z m 4e-4,-4.49078 c -0.24359,0.14078 -0.47236,0.21 -0.70156,0.21 -0.2292,0 -0.45844,-0.07039 -0.70204,-0.21117 l -3.676,-2.1248 c -0.31359,-0.17398 -0.52596,-0.5084 -0.52596,-0.8924 0,-0.5632 0.4568,-1.02 1.02,-1.02 0.19199,0 0.3716,0.0532 0.5252,0.14559 l 3.3588,1.9416 2.864,-1.6552 v -15.126 c 0,-0.5632 0.4568,-1.02 1.02,-1.02 0.5632,0 1.02,0.4568 1.02,1.02 v 15.494 c 0,0.5624 -0.21442,0.934 -0.7016,1.2156 z M 5.9248,31.018 c -0.5632,0 -1.0196,-0.456 -1.0196,-1.0192 v -15.494 c 0,-0.5624 0.21442,-0.934 0.7012,-1.2156 l 3.6772,-2.1256 c 0.15359,-0.09238 0.3332,-0.14559 0.5252,-0.14559 0.5632,0 1.02,0.4568 1.02,1.02 0,0.38398 -0.21238,0.7184 -0.52596,0.8924 l -3.358,1.9408 v 15.126 c 0,0.5632 -0.4568,1.02 -1.02,1.02 z m 16.2132,7.0692 c 0.31359,0.17398 0.52516,0.50916 0.52516,0.89312 0,0.5632 -0.4568,1.02 -1.02,1.02 -0.19199,0 -0.3716,-0.0532 -0.5248,-0.14559 l -3.6772,-2.1256 c -0.4868,-0.2816 -0.7012,-0.6532 -0.7012,-1.2156 v -19.762 c 0,-0.5624 0.21442,-0.934 0.7012,-1.2156 l 7.5612,-4.3704 c 0.15359,-0.09238 0.3332,-0.14559 0.5252,-0.14559 0.5632,0 1.02,0.4568 1.02,1.02 0,0.38398 -0.21238,0.7184 -0.52596,0.8924 l -7.2416,4.186 v 19.028 z M 20.6232,18.997 c 0,-0.5624 0.21391,-0.934 0.70072,-1.2156 l 7.3844,-4.2684 c 0.24359,-0.14078 0.4728,-0.21117 0.70204,-0.21117 0.22924,0 0.45844,0.07039 0.70204,0.21117 l 3.5008,2.0236 c 0.4872,0.2816 0.7024,0.6532 0.7016,1.2156 l -0.0044,4.2688 c 0,0.5504 -0.454,1.0204 -1.022,1.0204 -0.1732,0 -0.3484,-0.04398 -0.5088,-0.1368 l -3.3692,-1.9512 -3.3588,1.9412 c -0.1532,0.09238 -0.33281,0.14559 -0.5248,0.14559 -0.5632,0 -1.02,-0.4568 -1.02,-1.02 0,-0.38398 0.21238,-0.7184 0.52596,-0.8924 l 3.676,-2.1248 c 0.24359,-0.14078 0.4728,-0.21117 0.70204,-0.21117 0.22924,0 0.45844,0.07039 0.70204,0.21117 l 2.162,1.2496 v -2.1336 l -2.864,-1.6556 -6.7476,3.9004 v 3.9016 c 0,0.5632 -0.4568,1.02 -1.02,1.02 -0.5632,0 -1.02,-0.4568 -1.02,-1.02 v -4.2684 z m 13.1648,5.621 c 0.31359,0.17398 0.52552,0.5084 0.52552,0.8924 0,0.5632 -0.4568,1.02 -1.02,1.02 -0.19199,0 -0.3716,-0.0532 -0.5252,-0.14559 l -3.3588,-1.9412 -6.7476,3.9004 v 6.1464 c 0,0.5632 -0.4568,1.02 -1.02,1.02 -0.5632,0 -1.02,-0.4568 -1.02,-1.02 v -6.5132 c 0,-0.5624 0.21442,-0.934 0.7016,-1.2156 l 7.3844,-4.2684 c 0.24359,-0.14078 0.4728,-0.21117 0.70204,-0.21117 0.22924,0 0.45844,0.07039 0.70204,0.21117 z m -4.378,2.118 c 0.5632,0 1.0204,0.4576 1.0204,1.0208 0,0.38398 -0.21238,0.7184 -0.52596,0.8924 l -3.358,1.9408 v 6.1464 c 0,0.5632 -0.4568,1.02 -1.02,1.02 -0.5632,0 -1.02,-0.4568 -1.02,-1.02 v -6.5136 c 0,-0.5624 0.21442,-0.934 0.7012,-1.2156 l 3.6772,-2.1256 c 0.15359,-0.09238 0.3332,-0.14559 0.5252,-0.14559 z"
           inkscape:connector-curvature="0"
           style="fill:#ffffff;fill-opacity:0.9910714" />
      </g>
    </g>
  </g>
</svg>
